<?xml version="1.0" encoding="UTF-8" standalone="no"?>
<!-- Created with Inkscape (http://www.inkscape.org/) -->

<svg
   width="1280"
   height="720"
   viewBox="0 0 1280 720"
   version="1.1"
   id="svg1"
   xml:space="preserve"
   inkscape:export-filename="cmake.webp"
   inkscape:export-xdpi="96"
   inkscape:export-ydpi="96"
   inkscape:version="1.3.1 (91b66b0, 2023-11-16)"
   sodipodi:docname="cmake.svg"
   xmlns:inkscape="http://www.inkscape.org/namespaces/inkscape"
   xmlns:sodipodi="http://sodipodi.sourceforge.net/DTD/sodipodi-0.dtd"
   xmlns="http://www.w3.org/2000/svg"
   xmlns:svg="http://www.w3.org/2000/svg"><sodipodi:namedview
     id="namedview1"
     pagecolor="#ffffff"
     bordercolor="#000000"
     borderopacity="0.25"
     inkscape:showpageshadow="2"
     inkscape:pageopacity="0.0"
     inkscape:pagecheckerboard="0"
     inkscape:deskcolor="#d1d1d1"
     inkscape:document-units="px"
     inkscape:zoom="0.32777778"
     inkscape:cx="639.15254"
     inkscape:cy="360"
     inkscape:window-width="1328"
     inkscape:window-height="451"
     inkscape:window-x="0"
     inkscape:window-y="38"
     inkscape:window-maximized="0"
     inkscape:current-layer="layer2" /><defs
     id="defs1" /><g
     inkscape:groupmode="layer"
     id="layer2"
     inkscape:label="图层 2"><rect
       style="fill:#b3e5fc;fill-opacity:1;stroke-width:31.706;stroke-linecap:round"
       id="rect1"
       width="1280"
       height="720"
       x="0"
       y="0"
       rx="0"
       ry="0"
       inkscape:label="rect1" /></g><g
     inkscape:label="图层 1"
     inkscape:groupmode="layer"
     id="layer1"><g
       id="g9"
       transform="matrix(2.9554693,0,0,2.9554693,202.70161,230.45542)"><polygon
         points="43.3,41.8 39.53,0 0,78.6 "
         style="fill:#0068c7"
         id="polygon1" /><polygon
         points="0.22,82.14 78.98,82.14 25.56,60.62 "
         style="fill:#3dae2b"
         id="polygon2" /><polygon
         points="48.29,66.68 82.09,80.3 42.4,1.34 "
         style="fill:#f32735"
         id="polygon3" /><polygon
         points="45.6,65.56 43.78,45.03 27.95,58.46 "
         style="fill:#dce3eb"
         id="polygon4" /><g
         id="g8"><path
           d="m 116.11,65.92 c 5.82,0 10.56,-1.91 12.86,-3.6 l 0.84,5.43 c -2.98,1.91 -6.81,3.6 -13.47,3.6 -14.39,0 -20.43,-7.65 -20.43,-24.49 0,-16.84 5.59,-25.33 20.2,-25.33 6.43,0 10.03,1.76 13.24,3.52 l -0.84,5.51 c -3.37,-1.99 -7.42,-3.6 -12.63,-3.6 -10.64,0 -14.08,6.5 -14.08,19.59 0,12.17 2.98,19.36 14.31,19.36 z"
           style="fill:#003764"
           id="path4" /><path
           d="m 137.4,22.22 h 5.66 l 16,26.02 16,-26.02 h 5.66 V 70.59 H 174.9 V 32.63 L 159.59,57.5 h -1.15 L 143.21,32.7 v 37.88 h -5.82 V 22.22 Z"
           style="fill:#003764"
           id="path5" /><path
           d="m 217.08,69.05 c -3.44,1.22 -8.88,2.14 -14.01,2.14 -8.88,0 -14.77,-2.98 -14.77,-11.33 0,-8.35 5.89,-11.4 15.92,-11.4 h 7.27 v -3.6 c 0,-5.05 -3.52,-6.66 -9.34,-6.66 -4.29,0 -7.81,0.77 -10.1,1.61 l -0.84,-5.13 c 2.98,-0.84 6.73,-1.61 11.17,-1.61 8.42,0 14.69,3.06 14.69,12.24 V 69.03 Z M 211.49,52.9 h -7.19 c -6.81,0 -10.41,1.68 -10.41,6.89 0,5.21 3.6,6.58 9.03,6.58 2.68,0 6.2,-0.31 8.57,-1.07 z"
           style="fill:#003764"
           id="path6" /><path
           d="m 225.44,18.39 h 5.59 v 52.19 h -5.59 z m 22.58,15.31 h 7.12 l -15.31,17.45 16.84,19.44 h -7.12 L 232.71,51.15 Z"
           style="fill:#003764"
           id="path7" /><path
           d="m 289.57,54.36 h -25.18 v 0.31 c 0,7.81 4.52,11.25 12.17,11.25 4.29,0 8.8,-1.07 11.56,-2.53 l 0.84,5.28 c -3.6,1.61 -7.96,2.53 -12.47,2.53 -11.79,0 -17.76,-5.89 -17.76,-18.98 0,-10.64 3.9,-19.13 16,-19.13 9.72,0 15.46,5.43 15.46,16.15 0,1.53 -0.15,3.52 -0.61,5.13 z m -25.18,-4.74 h 20.43 v -0.46 c 0,-7.88 -3.98,-11.1 -10.25,-11.1 -6.27,0 -10.18,3.14 -10.18,11.1 z"
           style="fill:#003764"
           id="path8" /></g></g></g></svg>
