<?xml version="1.0" encoding="UTF-8" standalone="no"?>
<!-- Created with Inkscape (http://www.inkscape.org/) -->

<svg
   width="512"
   height="512"
   viewBox="0 0 512 512"
   version="1.1"
   id="svg1"
   xml:space="preserve"
   xmlns="http://www.w3.org/2000/svg"
   xmlns:svg="http://www.w3.org/2000/svg"><defs
     id="defs1" /><g
     id="layer1"><path
       id="path1"
       style="fill:rgb(27 101 133);stroke-width:0.81252"
       d="m 78.505234,48.035361 c -3.0008,0.146735 -4.53796,0.746151 -5.55469,1.762877 -2.31245,2.312497 -2.98988,9.139463 -1.24233,12.515954 3.01139,5.818531 19.5554,24.464531 34.147026,38.484818 3.04546,2.92624 6.41666,6.47069 7.49105,7.87511 l 1.95259,2.55409 -2.58417,3.53963 c -1.42227,1.94722 -3.16969,4.63739 -3.88202,5.97805 -0.71233,1.34066 -3.01445,5.61333 -5.11512,9.49454 -4.581046,8.46417 -7.955006,18.45267 -10.431496,30.87808 -2.40997,12.09196 -2.60564,33.80228 -0.40485,44.94177 2.04877,10.37004 5.06607,20.73598 8.226746,28.25459 0.91482,2.17618 -0.0968,1.87496 -7.435536,10.95666 -5.92015,7.32623 -7.27999,8.83712 -10.61889,12.76813 -10.29283,12.11815 -20.949795,34.90988 -25.84394,55.27379 -3.713479,15.45148 -4.757482,25.45227 -4.707938,45.09446 0.04051,16.06157 0.305443,19.71286 2.176989,30.06374 1.171636,6.47978 2.670555,13.60831 3.331413,15.84275 0.660846,2.23436 1.90223,6.44051 2.757679,9.34647 2.128363,7.23005 6.058441,16.87918 10.369037,25.45065 1.98344,3.94416 3.07862,6.7277 3.96068,8.52288 1.00286,2.0409 3.70896,5.7608 5.63566,8.6478 l 5.19608,7.7178 21.811526,-0.0532 c -0.19024,-0.1795 -0.21018,-0.42316 -0.0648,-0.62001 l -4.6154,-5.85775 C 92.469084,444.0225 83.106274,426.58359 77.584434,410.01484 c -3.94186,-11.82807 -5.4198,-18.81363 -7.31061,-34.54497 -1.373958,-11.43135 -1.626755,-31.23626 -0.474257,-37.13143 0.419277,-2.1447 1.542777,-8.10558 2.498557,-13.2447 2.24742,-12.08439 3.4925,-16.38434 7.83346,-27.0886 8.222,-20.27426 19.879546,-36.41334 37.607986,-52.06499 3.30716,-2.91974 3.59987,-3.49063 3.54659,-6.90575 -0.0348,-2.23201 -0.74119,-4.87831 -1.76289,-6.60732 -1.5779,-2.67033 -3.57045,-7.61741 -7.45636,-18.50325 -2.11809,-5.93353 -4.03098,-20.44047 -4.01388,-30.43853 0.0253,-14.84973 4.01913,-32.28068 10.24872,-44.71966 2.35413,-4.7006 7.64965,-13.73852 8.41646,-14.36443 2.33167,-3.81389 6.0475,-6.73691 8.36324,-10.48472 2.91768,-4.93916 2.52355,-5.56711 -13.83925,-21.987357 -19.74592,-19.81512 -23.456136,-23.82977 -22.355196,-24.19674 1.04675,-0.34892 19.673466,2.43031 28.650186,4.27531 3.35164,0.68889 8.65437,1.77373 11.78257,2.40835 6.54107,1.327 17.11657,4.17996 19.50036,5.26086 5.29491,2.40095 19.36528,6.53791 22.2372,6.53791 1.86145,0 6.57751,-1.08091 10.48009,-2.4014 8.44175,-2.85637 21.22294,-5.97592 31.8775,-7.78025 16.12041,-2.72995 54.11835,-2.46373 68.2524,0.4789 10.89716,2.26872 23.41993,5.47282 27.62532,7.0677 1.44864,0.54931 0.93702,0.38524 6.60037,2.10988 5.36866,1.63493 6.04147,1.51143 21.43212,-3.92829 5.80952,-2.05334 12.75656,-4.24916 15.43788,-4.87914 2.68126,-0.62998 7.98174,-1.91494 11.78026,-2.85715 9.94962,-2.46799 34.6691,-6.63288 37.63807,-6.34127 2.43949,0.23961 1.84789,0.92812 -17.1059,19.84739 -10.79857,10.77894 -19.85454,20.470197 -20.12268,21.538547 -0.38468,1.53262 0.47767,3.1421 4.08561,7.62293 10.26107,12.74382 16.03385,23.54832 20.39799,38.17946 4.01092,13.44662 5.44763,31.29537 3.49568,43.40328 -2.01856,12.52057 -4.93618,21.98988 -10.19784,33.09903 -4.11295,8.68383 -4.02921,8.96911 5.17064,18.0637 10.26346,10.14608 14.36265,14.7967 19.11169,21.68661 5.22156,5.85581 7.74333,13.14377 11.46099,19.84507 6.51224,11.56428 11.79011,31.63751 13.67039,52.00021 2.22617,24.10857 -2.95533,57.54563 -12.06946,77.88579 -5.64615,12.6008 -13.66385,25.30904 -16.92081,30.73928 -2.82829,4.71553 -5.96531,10.22758 -7.71986,12.05414 l 21.10804,-0.47277 c 0,-0.57029 5.38155,-6.81385 12.34012,-20.26612 3.99652,-7.72605 9.3674,-20.85737 12.29616,-30.06374 11.48508,-36.10273 11.34565,-77.33248 -0.38172,-112.53486 -2.96471,-11.77764 -9.63241,-22.07373 -15.31758,-32.4929 -3.91443,-7.17405 -14.48122,-20.32105 -21.47375,-27.11404 -3.48197,-3.38261 -4.32301,-4.66093 -3.76173,-5.70969 1.20972,-2.26032 4.92517,-13.1981 6.24178,-18.37138 2.35631,-9.25845 2.67626,-11.42588 3.55351,-24.1042 1.95659,-28.2773 -4.36282,-52.33634 -20.04634,-76.32883 l -3.50724,-5.36959 10.76232,-11.002937 c 17.48882,-17.87789 28.39805,-30.24942 32.14356,-36.45127 1.94698,-3.223839 2.3356,-8.351402 0.87449,-11.558173 -2.01183,-4.415495 -8.19959,-4.800955 -28.90005,-1.804518 -7.51761,1.088196 -14.94722,2.131566 -16.51133,2.318112 -10.30633,1.229217 -37.70353,7.972305 -53.38134,13.138279 l -10.7253,3.5327 -8.77505,-2.80626 c -9.79356,-3.130122 -24.4332,-6.195804 -38.27196,-8.016228 -10.49061,-1.379986 -43.23922,-1.618784 -52.97648,-0.386352 -12.40366,1.569916 -37.90558,6.90175 -42.65834,8.91849 -5.97339,2.53471 -7.5133,2.05782 -13.3673,0.19896 -6.53322,-2.07451 -16.02068,-5.541673 -23.79651,-7.743239 -1.41897,-0.401772 -5.93987,-1.157309 -9.96186,-2.059003 C 130.31683,54.717172 117.51883,52.292536 110.06812,51.2512 92.572554,48.805938 83.506544,47.790903 78.505264,48.035456 Z M 193.18001,130.03221 c -14.79709,0.0997 -26.43408,5.11431 -35.43565,13.92256 -5.48385,5.36607 -9.85357,11.63581 -11.60905,16.65477 -1.64795,2.68124 -2.13208,5.27498 -2.78313,8.27766 -1.40442,4.62824 -1.55077,17.11471 -0.27067,23.11634 1.26932,6.62149 4.82689,12.2905 8.00466,18.11922 8.60989,12.84897 22.51391,20.48653 38.80869,21.31876 16.23957,0.8294 28.46132,-3.6469 39.86827,-14.60502 l 4.85369,-4.66168 7.98383,15.81729 c 3.47449,6.61194 8.41185,15.38616 10.44538,17.02958 2.01921,1.63184 4.24363,1.03981 6.86874,-0.37248 1.69647,-0.91268 4.78484,-5.23586 10.4083,-17.45066 3.64769,-7.92318 5.74846,-12.88676 6.85955,-15.07232 l 5.24697,5.09199 c 5.37067,5.21169 12.94044,9.72118 20.74039,12.35632 6.36771,2.15129 20.77171,2.64344 27.51428,0.93928 22.73975,-5.74742 37.75253,-23.9114 38.80869,-46.95218 0.70284,-15.33283 -4.35965,-28.82292 -14.5842,-38.86655 -3.17274,-3.11662 -6.23708,-5.66805 -6.8109,-5.66805 -0.57381,0 -1.16512,-0.28678 -1.31407,-0.63852 -0.4686,-1.10645 -7.3982,-4.76292 -12.05324,-6.35977 -3.55207,-1.21847 -6.81848,-1.53383 -15.92372,-1.53383 -6.85879,0 -12.23839,0.37082 -13.40664,0.92307 -1.07315,0.5073 -4.21954,1.7749 -6.99135,2.81552 -5.36292,2.01343 -7.70295,3.61119 -14.75077,10.07523 -9.33835,8.56484 -14.7588,20.90225 -15.00989,34.16322 -0.0757,4.00157 0.0438,8.73882 0.26605,10.52636 l 0.40486,3.24814 -13.02722,0.2244 -13.02723,0.2221 0.0185,-10.78547 c 0.0157,-9.26414 -0.26144,-11.64469 -1.96647,-16.87919 -4.99002,-15.31934 -16.43312,-27.07433 -31.59063,-32.45588 -4.95262,-1.75839 -10.71711,-2.57953 -16.54603,-2.54021 z m -12.83985,21.4437 c 0.76767,-0.0936 1.56663,-0.0464 2.36901,0.15501 1.10828,0.27815 3.8653,1.94104 6.12611,3.69463 7.20442,5.17604 12.85037,10.19549 21.1198,16.20366 1.1372,0.82623 7.5397,6.10929 8.18974,8.15733 1.08321,3.4129 -1.28985,6.0303 -14.71145,16.21754 -21.71808,16.48447 -20.75637,15.90099 -24.30085,14.74846 -3.32407,-1.08087 -4.53127,-2.32271 -4.98554,-5.12205 -0.39148,-2.41235 -0.0662,-3.33111 2.02429,-5.71199 1.36981,-1.56015 4.05847,-3.89555 5.97572,-5.19146 1.91732,-1.29595 5.30677,-3.82333 7.53041,-5.61714 2.22358,-1.79382 4.22429,-3.14748 5.13796,-3.89417 1.36455,-1.11519 2.77828,-1.95915 4.19001,-3.02547 0.55568,-0.41973 0.84673,-0.36515 0.84673,-0.81204 0,-0.44689 -0.36516,-0.81202 -0.81204,-0.81202 -0.44689,0 -1.48417,-0.64075 -2.30423,-1.42281 -0.82005,-0.78198 -2.31409,-1.96934 -3.32216,-2.63968 -1.00808,-0.67032 -2.98845,-2.18262 -4.40025,-3.35918 -1.41179,-1.17657 -4.94048,-3.92082 -7.8404,-6.09835 -6.58903,-4.94762 -7.84045,-7.22634 -6.16774,-11.22965 1.00938,-2.41579 3.03196,-3.95984 5.33488,-4.24062 z m 159.18391,5.52691 c 4.1141,0.12971 7.94061,4.04375 7.02606,7.85661 -0.33915,1.41388 -7.72452,9.38453 -20.66173,22.30199 -21.24264,21.21021 -22.59896,22.20471 -26.99836,19.74559 -2.6437,-1.47773 -4.27532,-5.16679 -3.36844,-7.6183 0.96437,-2.60693 40.02816,-41.54461 42.23497,-42.09849 0.58649,-0.14721 1.17976,-0.20592 1.7675,-0.1874 z m -5.16138,306.39798 c -0.002,0.002 -0.007,0.002 -0.009,0.005 0.004,0 0.006,-0.004 0.009,-0.005 z" /></g></svg>
