<?xml version="1.0" encoding="UTF-8" standalone="no"?>
<!-- Created with Inkscape (http://www.inkscape.org/) -->

<svg
   width="120"
   height="120"
   viewBox="0 0 120 120"
   version="1.1"
   id="svg1"
   xml:space="preserve"
   inkscape:version="1.3.1 (91b66b0, 2023-11-16)"
   sodipodi:docname="favicon.svg"
   xmlns:inkscape="http://www.inkscape.org/namespaces/inkscape"
   xmlns:sodipodi="http://sodipodi.sourceforge.net/DTD/sodipodi-0.dtd"
   xmlns="http://www.w3.org/2000/svg"
   xmlns:svg="http://www.w3.org/2000/svg"><sodipodi:namedview
     id="namedview1"
     pagecolor="#ffffff"
     bordercolor="#000000"
     borderopacity="0.25"
     inkscape:showpageshadow="2"
     inkscape:pageopacity="0.0"
     inkscape:pagecheckerboard="0"
     inkscape:deskcolor="#d1d1d1"
     inkscape:document-units="px"
     inkscape:zoom="3.0408623"
     inkscape:cx="60.015872"
     inkscape:cy="68.894932"
     inkscape:window-width="1512"
     inkscape:window-height="916"
     inkscape:window-x="0"
     inkscape:window-y="38"
     inkscape:window-maximized="1"
     inkscape:current-layer="layer1" /><defs
     id="defs1" /><g
     inkscape:label="图层 1"
     inkscape:groupmode="layer"
     id="layer1"><path
       style="fill:#574393;stroke:none;stroke-width:0.201955"
       d="m 77.703638,22.903212 c -0.512688,0.313784 -0.382598,0.464607 -1.141016,0.752631 -0.815382,0.30965 -1.090708,0.454609 -1.10421,0.778202 -0.06095,1.459474 -0.449131,1.406278 -0.415038,2.445476 0.0099,0.30059 -0.02833,0.561013 0.450851,1.967356 0.321168,0.942596 0.419953,0.939543 0.629198,1.629729 0.214513,0.70756 0.978617,1.864932 -0.05258,2.558172 -0.436688,0.293591 -1.259378,0.04828 -1.407534,0.4546 -0.262892,0.72105 -0.05666,1.004047 -0.331784,1.380859 -0.150824,0.206587 -0.201484,0.177751 -0.571847,0.108353 0.112575,0.136648 0.433589,0.102395 0.327408,0.460682 -0.133342,0.449948 -0.312175,0.268943 -0.796921,1.13373 -0.533223,0.95126 0.358646,2.621509 -1.448769,2.950857 -1.941132,0.353718 -2.370863,-0.732526 -3.30032,0.06966 -0.749621,0.646967 -0.611959,0.629947 -0.994976,1.158508 -0.574537,0.79282 -2.638782,1.195534 -2.732651,2.766546 -0.07386,1.236417 1.57552,2.18599 2.001184,3.375583 0.938397,2.622535 -0.0089,5.761713 2.175762,7.868539 1.512602,1.458624 4.008595,1.176421 5.57997,2.71097 1.327266,1.296159 0.992926,3.577055 2.304882,4.700942 0.85114,0.72913 2.218992,0.770873 3.185331,1.358527 1.303568,0.792753 1.782217,2.140081 2.86478,3.109286 1.516681,1.357843 3.38342,1.743869 4.650294,3.512099 2.336086,3.260627 2.897902,8.480211 3.87004,12.319321 1.964842,7.759447 4.396451,15.423106 6.185062,23.22495 -3.372387,0 -6.968678,-0.0783 -10.338717,-0.15146 -1.047917,-0.0227 -2.16519,0.0298 -2.905927,-0.46001 -1.151245,-0.76123 -1.661101,-3.68219 -2.362697,-4.84135 -2.707033,-4.47246 -4.877317,-9.200089 -6.001952,-13.934959 -1.581671,0.733219 -2.921184,2.247221 -4.241087,3.378548 -2.782242,2.38474 -5.46173,4.895945 -8.280192,7.237235 -3.026462,2.514069 -6.796404,3.884606 -10.501721,5.067286 -3.247223,1.03648 -6.710691,1.28124 -10.097793,1.28124 -4.39698,0 -9.767608,-0.87532 -13.383652,-3.731417 -3.02968,-2.392974 -5.184641,-7.012712 -5.961753,-10.607471 -1.987802,-9.195188 1.848684,-20.244439 5.440665,-28.677759 1.213491,-2.849062 3.210685,-6.389082 4.878894,-9.014471 3.264166,-5.137067 5.771016,-8.348125 10.921663,-11.572885 2.127328,-1.331895 5.430052,-0.163676 7.102439,-1.921511 0.601719,-0.632462 1.024539,-1.188778 1.301066,-1.910445 0.249586,-0.651332 0.65455,-0.973702 2.233696,-0.962922 0.576775,0.0044 0.269494,-3.448201 0.131765,-4.709222 -0.308458,-2.824193 -0.902616,-6.328842 0.474507,-8.886065 5.469974,-10.157339 17.208112,-6.712191 21.663623,1.62209 z"
       id="path1"
       sodipodi:nodetypes="csssssssscsssssssssssssscssscsssssssssscsssc" /></g></svg>
