<?xml version="1.0" encoding="UTF-8" standalone="no"?>
<!-- Created with Inkscape (http://www.inkscape.org/) -->

<svg
   width="1280"
   height="720"
   viewBox="0 0 1280 720"
   version="1.1"
   id="svg1"
   xml:space="preserve"
   inkscape:version="1.3.1 (91b66b0, 2023-11-16)"
   sodipodi:docname="logo.svg"
   xmlns:inkscape="http://www.inkscape.org/namespaces/inkscape"
   xmlns:sodipodi="http://sodipodi.sourceforge.net/DTD/sodipodi-0.dtd"
   xmlns="http://www.w3.org/2000/svg"
   xmlns:svg="http://www.w3.org/2000/svg"><sodipodi:namedview
     id="namedview1"
     pagecolor="#ffffff"
     bordercolor="#000000"
     borderopacity="0.25"
     inkscape:showpageshadow="2"
     inkscape:pageopacity="0.0"
     inkscape:pagecheckerboard="0"
     inkscape:deskcolor="#d1d1d1"
     inkscape:document-units="px"
     inkscape:zoom="0.37460317"
     inkscape:cx="599.30085"
     inkscape:cy="316.33475"
     inkscape:window-width="1512"
     inkscape:window-height="916"
     inkscape:window-x="0"
     inkscape:window-y="38"
     inkscape:window-maximized="1"
     inkscape:current-layer="layer1" /><defs
     id="defs1" /><g
     inkscape:label="图层 1"
     inkscape:groupmode="layer"
     id="layer1"><rect
       style="fill:#574393;fill-opacity:1;stroke:none;stroke-width:25.2406;stroke-linecap:round"
       id="rect1"
       width="1280"
       height="720"
       x="0"
       y="0"
       ry="0" /><path
       style="fill:#ffffff;stroke:none;fill-opacity:1"
       d="m 685.37166,130.84232 c -2.5386,1.5537 -1.89441,2.30051 -5.64977,3.72667 -4.03746,1.53329 -5.40074,2.25106 -5.46762,3.85336 -0.30164,7.22669 -2.22389,6.96329 -2.05505,12.10896 0.0488,1.48836 -0.14036,2.77788 2.23239,9.7415 1.59032,4.66733 2.07946,4.65219 3.11555,8.06971 1.06217,3.50353 4.84567,9.23435 -0.26012,12.66698 -2.16229,1.45372 -6.23588,0.23882 -6.9695,2.25099 -1.3017,3.57031 -0.28073,4.9716 -1.64286,6.83742 -0.74677,1.02292 -0.99766,0.88014 -2.8315,0.5364 0.55741,0.67662 2.14696,0.50699 1.62119,2.28111 -0.66025,2.22792 -1.54575,1.33168 -3.94605,5.61376 -2.64026,4.71018 1.77587,12.98055 -7.17367,14.61136 -9.61164,1.75147 -11.73949,-3.62718 -16.34179,0.34488 -3.7118,3.20351 -3.03013,3.11926 -4.9267,5.73642 -2.84486,3.92573 -13.06608,5.91979 -13.53088,13.69876 -0.36581,6.12222 7.80127,10.8241 9.909,16.71448 4.64654,12.98566 -0.0446,28.52954 10.77342,38.9616 7.48975,7.22248 19.84888,5.82514 27.62964,13.42359 6.57208,6.41803 4.91656,17.71203 11.41278,23.27704 4.21448,3.61035 10.98749,3.81701 15.7724,6.72687 6.45471,3.92535 8.82477,10.59674 14.18518,15.39581 7.50995,6.72348 16.75324,8.63489 23.02625,17.39044 11.56732,16.1452 14.34918,41.99036 19.16278,61 9.72906,38.42145 21.76934,76.36865 30.62579,115 -16.69861,0 -34.50593,-0.38785 -51.19291,-0.74993 -5.18885,-0.11258 -10.72109,0.14739 -14.38888,-2.27784 -5.7005,-3.76929 -8.22509,-18.2326 -11.69909,-23.97223 -13.40406,-22.14575 -24.15039,-45.55493 -29.71912,-69 -7.83173,3.63062 -14.46442,11.12732 -21,16.72913 -13.77649,11.80822 -27.04419,24.24267 -41,35.83569 -14.98572,12.44861 -33.65286,19.23492 -52,25.09106 -16.07889,5.13214 -33.22849,6.34412 -50,6.34412 -21.77194,0 -48.36501,-4.33418 -66.2701,-18.47633 -15.00165,-11.849 -25.67213,-34.72399 -29.52003,-52.52367 -9.84277,-45.53064 9.1539,-100.24182 26.93982,-142 6.0087,-14.10736 15.89793,-31.636 24.15821,-44.63582 16.16272,-25.43652 28.57561,-41.33633 54.07942,-57.30398 10.53357,-6.59497 26.88725,-0.81043 35.16819,-9.51447 2.97946,-3.13172 5.07308,-5.88633 6.44234,-9.4597 1.23583,-3.22513 3.24108,-4.82136 11.06032,-4.76798 2.85595,0.0195 1.33444,-17.07404 0.65246,-23.31805 -1.52738,-13.98422 -4.46938,-31.33775 2.34955,-44 27.08497,-50.294807 85.20722,-33.235887 107.26896,8.03189 z"
       id="path1"
       sodipodi:nodetypes="csssssssscsssssssssssssscssscsssssssssscsssc" /></g></svg>
